<svg width="30" height="30" viewBox="0 0 30 30" fill="none" xmlns="http://www.w3.org/2000/svg">
    <path d="M7.397 6.875H.5a.454.454 0 0 1-.353-.183A.713.713 0 0 1 0 6.25c0-.166.053-.324.146-.442A.454.454 0 0 1 .5 5.625h6.898c.132 0 .26.066.353.183a.713.713 0 0 1 .146.442.713.713 0 0 1-.146.442.454.454 0 0 1-.353.183z" fill="#3B5363"/>
    <path d="M26.86 22.625a1.564 1.564 0 0 0-.539-.094H18.57c-.56.002-1.095.281-1.49.776-.396.496-.619 1.167-.62 1.868v2.181c.001.7.224 1.372.62 1.868.395.495.93.774 1.49.776h7.751c.56-.002 1.095-.28 1.49-.776.396-.496.619-1.167.62-1.868v-2.181c0-.583-.155-1.15-.439-1.61-.284-.462-.682-.792-1.132-.94zm.573 4.731c0 .37-.117.724-.325.986-.209.261-.492.408-.787.408H18.57c-.295 0-.578-.147-.787-.408a1.59 1.59 0 0 1-.326-.986v-2.181c0-.37.118-.724.326-.986.209-.26.492-.408.787-.408h7.751c.295 0 .578.147.787.409.208.26.325.615.325.985v2.181z" fill="#171D3A"/>
    <path d="M27.434 25.175v2.181c0 .37-.117.724-.326.986-.209.261-.492.408-.787.408h-7.75a.917.917 0 0 1-.427-.104 1.128 1.128 0 0 1-.362-.302 1.454 1.454 0 0 1-.24-.453 1.702 1.702 0 0 1-.084-.535v-2.181c0-.37.117-.724.326-.986.208-.26.491-.408.786-.408h7.752c.146 0 .29.035.426.105.135.07.258.172.361.302.104.13.186.283.241.453.056.17.084.35.084.534z" fill="#2D4354"/>
    <path d="M26.686 24.238v2.18c0 .37-.117.725-.326.986-.209.262-.492.409-.787.409h-7.75a.913.913 0 0 1-.32-.057 1.741 1.741 0 0 1-.045-.4v-2.181c0-.37.117-.724.326-.986.208-.26.491-.408.786-.408h7.752c.108 0 .215.019.319.056.03.13.046.265.045.4z" fill="#3B5363"/>
    <path d="M24.965 0h-10.22c-.471 0-.923.235-1.256.652-.333.417-.52.983-.52 1.573v8.05c-.001.338.06.672.18.975.146.375.373.69.655.911.282.221.608.338.94.34H25.06c1.322-.016 2.586-.69 3.513-1.873.926-1.184 1.44-2.78 1.427-4.437-.013-1.658-.55-3.241-1.494-4.402C27.56.628 26.288-.015 24.965 0zm0 11.25h-10.22a.709.709 0 0 1-.55-.285 1.112 1.112 0 0 1-.229-.69v-8.05c0-.258.082-.506.228-.69a.709.709 0 0 1 .55-.285h10.22c1.059 0 2.074.527 2.822 1.465.749.937 1.169 2.21 1.169 3.535 0 1.326-.42 2.598-1.169 3.536-.748.937-1.763 1.464-2.821 1.464z" fill="#171D3A"/>
    <path d="M28.93 6.281c0 1.327-.42 2.598-1.169 3.536-.748.938-1.763 1.464-2.821 1.464H14.744a.644.644 0 0 1-.303-.077.798.798 0 0 1-.256-.22 1.031 1.031 0 0 1-.167-.326 1.2 1.2 0 0 1-.052-.383v-8.05c0-.258.082-.506.228-.69a.709.709 0 0 1 .55-.285h10.22c.805.006 1.59.316 2.251.89.662.575 1.169 1.387 1.456 2.329.17.58.259 1.194.259 1.812z" fill="#E5913C"/>
    <path d="M28.67 4.469c-.08 1.247-.532 2.41-1.264 3.26-.733.851-1.693 1.327-2.691 1.334h-10.22a.683.683 0 0 1-.53-.27V2.226c0-.258.083-.506.229-.69a.709.709 0 0 1 .55-.285h10.22c.805.006 1.59.316 2.25.89.662.575 1.17 1.387 1.456 2.329z" fill="#FFB24A"/>
    <path d="m13.158 1.25-3.681.913v8.125l3.67.962.819.206V1.02l-.808.231zm-2.684 1.931 2.494-.625v7.37L10.474 9.3V3.181z" fill="#171D3A"/>
    <path d="M12.969 2.544v7.381l-2.494-.637V3.18l1.995-.512.499-.125z" fill="#2D4354"/>
    <path d="M9.338 3.125c-.623 0-1.22.31-1.662.86-.44.55-.69 1.298-.693 2.078v.343c0 .39.059.774.177 1.134.117.36.29.687.51.963.218.275.478.494.764.644.286.15.593.227.904.228h1.137v-6.25H9.338zm.14 5h-.14a1.13 1.13 0 0 1-.522-.133 1.392 1.392 0 0 1-.441-.373 1.791 1.791 0 0 1-.294-.557 2.09 2.09 0 0 1-.1-.656v-.343c.003-.449.147-.878.4-1.194.255-.316.599-.494.957-.494h.14v3.75z" fill="#171D3A"/>
    <path d="M9.477 4.375v3.75h-.14c-.361-.003-.707-.186-.962-.508a1.957 1.957 0 0 1-.395-1.21v-.344c0-.372.099-.734.279-1.03.18-.296.433-.51.72-.608a.998.998 0 0 1 .358-.062l.14.012z" fill="#2D4354"/>
    <path d="M12.47 2.67v4.08c0 .309-.055.614-.161.893-.106.279-.26.524-.45.72a1.561 1.561 0 0 1-.654.407c-.24.074-.489.08-.73.018V3.163l1.995-.494zM8.978 4.425V6.47c0 .124-.022.246-.065.358a.83.83 0 0 1-.182.289.621.621 0 0 1-.263.162.533.533 0 0 1-.293.004 2.004 2.004 0 0 1-.195-.875v-.344c0-.372.099-.734.279-1.03.18-.296.433-.51.72-.608z" fill="#3B5363"/>
    <path d="M18.456 2.5h-2.993v1.25h2.993V2.5zM18.456 5h-2.993v1.25h2.993V5zM26.86 22.625 25.06 12.5l-.22-1.25h-6.485l.225 1.25.773 4.375.224 1.25.784 4.375.214 1.25h6.484l-.2-1.125zM19.578 12.5h4.489l1.77 10h-4.489l-.773-4.375-.997-5.625z" fill="#171D3A"/>
    <path d="M25.812 22.5h-4.464l-.11-.625-.165-.937-1.256-7.081-.24-1.357h4.464l1.771 10z" fill="#E5913C"/>
    <path d="M24.565 20.938h-3.491l-1.277-7.188h3.491l1.277 7.188z" fill="#E5913C"/>
    <path d="M23.503 21.875h-1.497a.841.841 0 0 1-.598-.262 1.266 1.266 0 0 1-.334-.675l-1.257-7.081-.11-.732h2.833a.85.85 0 0 1 .607.274c.171.177.288.423.33.695l.964 6.362a1.49 1.49 0 0 1-.013.522c-.035.17-.1.33-.19.465-.089.135-.201.244-.329.32a.796.796 0 0 1-.406.112z" fill="#FFB24A"/>
    <path d="m19.577 12.5-.224-1.25h-2.395v3.125a.762.762 0 0 1-.041.242.648.648 0 0 1-.233.314c-.214.13-.395.33-.522.581-.128.25-.198.54-.201.838v.213c0 .414.131.812.365 1.105.234.293.551.457.882.457h3.367l-.998-5.625zm-2.37 4.375a.233.233 0 0 1-.174-.093.363.363 0 0 1-.075-.22v-.212c0-.175.145-.281.19-.312.135-.086.258-.198.364-.332.14-.174.252-.381.328-.61.077-.228.116-.473.116-.72V12.5h.599l.773 4.375h-2.12z" fill="#171D3A"/>
    <path d="M19.328 16.875h-2.12a.233.233 0 0 1-.175-.093.362.362 0 0 1-.074-.22v-.212c0-.175.145-.281.19-.312.134-.086.257-.198.364-.332.14-.174.252-.381.328-.61.076-.228.115-.473.116-.72V12.5h.598l.773 4.375z" fill="#2D4354"/>
</svg>
