<svg width="27" height="27" viewBox="0 0 27 27" fill="none" xmlns="http://www.w3.org/2000/svg">
    <path d="M25.462 8.984a2.376 2.376 0 0 0-2.185-.624 1.406 1.406 0 0 0-.192-1.753l-4.308-4.308L15.9.363a2.198 2.198 0 0 0-2.756.272l-.333.333 2.653 2.677a.939.939 0 0 1 0 1.326l-1.326 1.327a1.406 1.406 0 0 0 0 1.987l.328.333.665.652 1.978 1.978.661.665a1.444 1.444 0 0 0 1.754.188 2.343 2.343 0 0 0 .628 2.189l1.322 1.326 5.315-5.306-1.326-1.326zm-3.98 5.306-.661-.666a1.406 1.406 0 0 1 0-1.987l.333-.333-1.055-1.05-.994.994a.469.469 0 0 1-.66 0l-.938-.938-2.386-2.386-.333-.333a.469.469 0 0 1 0-.66l1.336-1.318a1.875 1.875 0 0 0 0-2.653l-1.922-1.922a1.242 1.242 0 0 1 1.177.113l2.765 1.842 2.475 2.475.708.703 1.097 1.097a.469.469 0 0 1 0 .66l-.994.995 1.055 1.05.328-.328A1.43 1.43 0 0 1 24 9.27a.829.829 0 0 1 .188.037c.068.018.134.043.197.075.066.03.128.066.187.108.07.044.134.096.192.155l.661.66-3.942 3.985z" fill="#171D3A"/>
    <path d="M20.62 5.468a5.625 5.625 0 0 1-3.104 4.847L15.13 7.929l-.332-.333a.469.469 0 0 1 0-.66l1.326-1.323a1.873 1.873 0 0 0 0-2.653l-1.922-1.922a1.242 1.242 0 0 1 1.177.113l2.766 1.842 2.474 2.475z" fill="#3B5363"/>
    <path d="m25.462 10.31-3.98 3.98-.661-.666a1.406 1.406 0 0 1 0-1.987l.333-.333-1.055-1.05-.994.994a.469.469 0 0 1-.66 0l-.938-.938a5.625 5.625 0 0 0 3.112-4.837l.708.698 1.097 1.097a.468.468 0 0 1 0 .66l-.994.995 1.055 1.05.328-.328A1.43 1.43 0 0 1 24 9.27a.829.829 0 0 1 .188.037c.067.02.133.046.197.075a1.492 1.492 0 0 1 .38.263l.698.665z" fill="#2D4354"/>
    <path d="M17.516 10.32 15.13 7.933l-5.7 5.7a2.372 2.372 0 0 1-1.186.637 3.249 3.249 0 0 0-1.668.89L.548 21.196a1.875 1.875 0 0 0 0 2.648l1.987 1.988a1.875 1.875 0 0 0 2.649 0l6.032-6.029a3.247 3.247 0 0 0 .89-1.668c.094-.449.316-.86.638-1.186l5.035-5.035.665-.665-.928-.928zM12.08 16.3a3.248 3.248 0 0 0-.89 1.665 2.31 2.31 0 0 1-.643 1.172l-6.023 6.032a.937.937 0 0 1-1.327 0l-1.987-1.987a.937.937 0 0 1 0-1.326l6.056-6.024a2.311 2.311 0 0 1 1.186-.633 3.248 3.248 0 0 0 1.626-.9l5.053-5.03 1.978 1.979-5.03 5.053z" fill="#171D3A"/>
    <path d="m17.108 11.248-5.03 5.053a3.249 3.249 0 0 0-.89 1.664 2.31 2.31 0 0 1-.642 1.172l-6.023 6.032a.937.937 0 0 1-1.327 0l-1.987-1.987a.938.938 0 0 1-.277-.666.876.876 0 0 1 .112-.435.936.936 0 0 1 .165-.226l6.056-6.023a2.311 2.311 0 0 1 1.186-.633 3.248 3.248 0 0 0 1.626-.9l5.053-5.03 1.978 1.979z" fill="#E5913C"/>
    <path d="m15.702 9.841-4.56 4.585a3.248 3.248 0 0 0-.891 1.664 2.31 2.31 0 0 1-.643 1.172l-6.023 6.032a.937.937 0 0 1-1.326 0l-1.215-1.213a.936.936 0 0 1 .164-.226l6.057-6.023a2.311 2.311 0 0 1 1.186-.633 3.247 3.247 0 0 0 1.626-.9l5.053-5.03.572.572z" fill="#FFB24A"/>
</svg>
