<svg width="31" height="23" viewBox="0 0 31 23" fill="none" xmlns="http://www.w3.org/2000/svg">
    <path d="M26.7 0H4.224C3.88 0 3.6.224 3.6.5c0 .277.279.5.623.5h22.478c.345 0 .624-.223.624-.5 0-.276-.28-.5-.624-.5z" fill="#FFB24A"/>
    <path d="M29.674 2H1.253c-.341 0-.618.314-.618.7v10.5c0 1.547 1.107 2.8 2.471 2.8H27.82c1.365 0 2.472-1.253 2.472-2.8V2.7c0-.386-.277-.7-.618-.7zM20.988 19.382c.063-.25.212-.447.213-.449l-.003.006a.644.644 0 0 0 .14-.401.629.629 0 0 0-1.12-.4c-.031.037-.297.38-.435.865-.202.715-.033 1.392.478 1.912.181.184.231.367.167.616-.062.24-.208.427-.21.43l.003-.005A.642.642 0 0 0 20.707 23c.196 0 .37-.09.485-.231h.001v-.002c.035-.041.3-.377.437-.852.205-.705.035-1.38-.476-1.9-.183-.185-.233-.376-.166-.633zm-.766 2.574zM15.948 19.382c.064-.25.211-.447.213-.449l-.003.006a.64.64 0 0 0-.49-1.038.628.628 0 0 0-.49.237c-.031.037-.297.38-.434.865-.203.715-.034 1.392.477 1.912.182.184.231.367.168.616-.063.24-.209.427-.21.43l.002-.005a.642.642 0 0 0-.144.406c0 .353.282.638.63.638.195 0 .37-.09.486-.231v-.002c.035-.041.3-.377.437-.852.204-.705.035-1.38-.476-1.9-.183-.185-.232-.376-.166-.633zm-.767 2.574h.001zM26.671 21.915c.204-.705.035-1.38-.477-1.9-.182-.185-.232-.376-.166-.633.064-.25.212-.447.214-.449l-.004.006a.644.644 0 0 0 .14-.401.633.633 0 0 0-.63-.637.63.63 0 0 0-.49.237c-.03.037-.297.38-.433.865-.203.715-.034 1.392.477 1.912.182.184.231.367.167.616-.062.24-.208.427-.21.43l.003-.005a.637.637 0 0 0-.144.406c0 .353.283.638.63.638.195 0 .37-.09.485-.231l.002-.002c.034-.041.299-.377.436-.852zm-1.409.041h.001-.001zM10.906 19.382c.064-.25.212-.447.214-.449l-.003.006a.645.645 0 0 0 .139-.401.633.633 0 0 0-.63-.637.63.63 0 0 0-.49.237 2.66 2.66 0 0 0-.433.865c-.203.715-.034 1.392.477 1.912.182.184.232.367.167.616-.062.24-.208.427-.21.43l.003-.005a.638.638 0 0 0-.144.406c0 .353.282.638.63.638.195 0 .37-.09.485-.231h.001v-.002a2.58 2.58 0 0 0 .438-.852c.203-.705.035-1.38-.478-1.9-.181-.185-.231-.376-.166-.633zm-.766 2.574h.001zM5.867 19.382c.063-.25.212-.447.213-.449l-.003.006a.644.644 0 0 0 .14-.401.629.629 0 0 0-1.12-.4c-.032.037-.297.38-.435.865-.202.715-.032 1.392.478 1.912.181.184.23.367.167.616-.062.24-.208.427-.21.43l.003-.005A.642.642 0 0 0 5.586 23c.196 0 .37-.09.485-.231h.001v-.002c.035-.041.3-.377.437-.852.205-.705.035-1.38-.476-1.9-.183-.185-.233-.376-.166-.633zM5.1 21.956z" fill="#3B5363"/>
    <path d="M19.77 12h-7.625c-.351 0-.636.224-.636.5 0 .277.285.5.636.5h7.625c.351 0 .636-.223.636-.5 0-.276-.285-.5-.636-.5z" fill="#FFB24A"/>
</svg>
