<svg width="26" height="26" viewBox="0 0 26 26" fill="none" xmlns="http://www.w3.org/2000/svg">
    <path d="M22.013 26H16.2a7.115 7.115 0 0 1-7.107-7.107v-1.095a.951.951 0 1 1 1.903 0v1.095a5.21 5.21 0 0 0 5.204 5.204h5.814a.951.951 0 1 1 0 1.903z" fill="#FFB24A"/>
    <path d="M12.47 18.923H7.683a1.464 1.464 0 0 1-1.464-1.464v-4.366c0-.809.655-1.464 1.464-1.464h4.789c.809 0 1.464.655 1.464 1.464v4.366c0 .809-.656 1.464-1.464 1.464z" fill="#3B5363"/>
    <path d="M10.065 18.923H7.682a1.464 1.464 0 0 1-1.464-1.464v-4.366c0-.809.655-1.464 1.464-1.464h2.383v7.294z" fill="#3B5363"/>
    <path d="M13.184 5.455a.951.951 0 0 1-.951-.951V.95a.952.952 0 0 1 1.903 0v3.553a.951.951 0 0 1-.951.951z" fill="#E5913C"/>
    <path d="M13.184 5.455a.963.963 0 0 1-.951-.951V.95c0-.525.444-.951.951-.951v5.455z" fill="#FFB24A"/>
    <path d="M6.905 5.455a.951.951 0 0 1-.952-.951V.95a.951.951 0 0 1 1.903 0v3.553a.951.951 0 0 1-.951.951z" fill="#E5913C"/>
    <path d="M6.905 5.455a.963.963 0 0 1-.952-.951V.95c0-.525.444-.951.952-.951v5.455z" fill="#FFB24A"/>
    <path d="M15.924 3.957H3.744a.903.903 0 0 0-.918.928v3.362c0 3.183 2.555 5.795 5.738 5.795h2.539c3.183 0 5.805-2.612 5.805-5.795V4.885c0-.526-.459-.928-.984-.928z" fill="#3B5363"/>
    <path d="M10.076 4.187H3.953a.903.903 0 0 0-.917.928v3.362c0 3.183 2.555 5.795 5.738 5.795h1.291l.011-10.085z" fill="#51768F"/>
</svg>
