<svg width="30" height="30" viewBox="0 0 30 30" fill="none" xmlns="http://www.w3.org/2000/svg">
    <path d="M21.563 11.25v-.469a1.875 1.875 0 0 0-1.875-1.875h-7.5a1.875 1.875 0 0 0-1.875 1.875v.47h-.47a6.094 6.094 0 0 0-6.093 6.093v2.812h6.563v-1.875a.469.469 0 0 1 .468-.468 6.094 6.094 0 0 0 10.313 0h2.812V11.25h-2.343zm1.406 5.625H20.54l-.132.234a5.156 5.156 0 0 1-8.943 0l-.132-.234h-.553a1.406 1.406 0 0 0-1.406 1.406v.938H4.687v-1.875a5.156 5.156 0 0 1 5.157-5.156h1.406V10.78a.938.938 0 0 1 .938-.937h7.5a.938.938 0 0 1 .937.937v1.407h2.344v4.687z" fill="#171D3A"/>
    <path d="M22.969 12.188v4.687H20.54l-.132.234a5.156 5.156 0 0 1-8.943 0l-.132-.234h-.553a1.406 1.406 0 0 0-1.406 1.406v.938H4.687v-1.875a5.156 5.156 0 0 1 5.157-5.157h1.406v-1.406a.938.938 0 0 1 .938-.937h7.5a.938.938 0 0 1 .937.937v1.406h2.344z" fill="#2D4354"/>
    <path d="M22.969 12.188v3.28H20.54l-.132.235a5.156 5.156 0 0 1-8.943 0l-.132-.234h-.553a1.406 1.406 0 0 0-1.406 1.406v.938H4.687v-.47a5.156 5.156 0 0 1 5.157-5.155h1.406V10.78a.938.938 0 0 1 .938-.937h7.5a.938.938 0 0 1 .937.937v1.406h2.344z" fill="#3B5363"/>
    <path d="M11.719 7.031v2.813h8.437V7.03H11.72zm.937 1.875V7.97h6.563v.937h-6.563z" fill="#171D3A"/>
    <path d="M19.219 7.969h-6.563v.937h6.563V7.97z" fill="#2D4354"/>
    <path d="M17.587 5.367a1.902 1.902 0 0 0-.243-.21 2.307 2.307 0 0 0-.235-.16 2.451 2.451 0 0 0-.703-.263.872.872 0 0 0-.16 0h-.14a.22.22 0 0 0-.08 0h-.15a.22.22 0 0 0-.08 0h-.14a.873.873 0 0 0-.16 0 2.451 2.451 0 0 0-.716.268 1.59 1.59 0 0 0-.249.154 2.344 2.344 0 0 0-.937 1.875v.938h4.687V7.03a2.342 2.342 0 0 0-.694-1.664zm-3.056 1.664a1.407 1.407 0 0 1 2.11-1.214h.032c.094.056.18.122.258.197a1.404 1.404 0 0 1 .413 1.017H14.53z" fill="#FFB24A"/>
    <path d="M17.344 7.031H14.53a1.407 1.407 0 0 1 2.11-1.214h.032c.094.056.18.122.258.197a1.406 1.406 0 0 1 .413 1.017z" fill="#2D4354"/>
    <path d="M21.563.938a1.837 1.837 0 0 0-1.233.468h-8.785a1.837 1.837 0 0 0-1.232-.468 1.875 1.875 0 0 0 0 3.75c.454.001.893-.166 1.232-.47h2.986V6.22l.703-.403a1.406 1.406 0 0 1 1.407 0h.032l.67.385V4.219h2.987c.339.303.778.47 1.233.469a1.875 1.875 0 1 0 0-3.75zm0 2.812a.938.938 0 0 1-.694-.314l-.136-.155h-4.327v1.453a.87.87 0 0 0-.16 0h-.14a.22.22 0 0 0-.08 0h-.15a.22.22 0 0 0-.08 0h-.14a.871.871 0 0 0-.16 0V3.281h-4.354l-.136.155a.937.937 0 1 1 0-1.247l.136.155h9.59l.137-.155a.937.937 0 1 1 .694 1.561z" fill="#171D3A"/>
    <path d="M22.5 2.813a.937.937 0 0 1-1.631.623l-.136-.155h-4.327v1.453a.871.871 0 0 0-.16 0h-.14a.22.22 0 0 0-.08 0h-.15a.22.22 0 0 0-.08 0h-.14a.871.871 0 0 0-.16 0V3.281h-4.354l-.136.155a.938.938 0 1 1 0-1.247l.136.155h9.59l.137-.155a.937.937 0 0 1 1.631.623z" fill="#E5913C"/>
    <path d="M22.969 10.313v8.906h3.281v-8.907h-3.281zm2.343 7.968h-1.406V11.25h1.407v7.031z" fill="#171D3A"/>
    <path d="M25.313 11.25h-1.407v7.031h1.407V11.25z" fill="#E5913C"/>
    <path d="m7.378 20.78-.347-.39-.347.39c-.3.337-2.934 3.318-2.934 5.001a3.281 3.281 0 1 0 6.563 0c0-1.683-2.635-4.664-2.935-5.001zm-.347 7.345a2.344 2.344 0 0 1-2.343-2.344c0-.895 1.321-2.756 2.343-3.97 1.022 1.214 2.344 3.075 2.344 3.97a2.344 2.344 0 0 1-2.344 2.344z" fill="#171D3A"/>
    <path d="M9.375 25.781a2.344 2.344 0 0 1-4.687 0c0-.867 1.237-2.634 2.245-3.848l.098-.122c1.022 1.214 2.344 3.075 2.344 3.97z" fill="#1B4F8C"/>
    <path d="M8.438 24.844a2.344 2.344 0 0 1-3.465 2.058 2.31 2.31 0 0 1-.285-1.12c0-.868 1.237-2.635 2.245-3.85.787 1.07 1.505 2.25 1.505 2.912z" fill="#E5913C"/>
</svg>
