<svg width="30" height="30" viewBox="0 0 30 30" fill="none" xmlns="http://www.w3.org/2000/svg">
    <g clip-path="url(#uhx0v0z3ua)">
        <path d="M13.137 23.55a8.5 8.5 0 0 0 6.029-2.494l.692-.692-5.338-5.337 1.117-1.117a2.747 2.747 0 0 0 3.055-.563 2.743 2.743 0 0 0 0-3.875 2.743 2.743 0 0 0-3.875 0 2.722 2.722 0 0 0-.802 1.938c0 .391.082.77.238 1.118l-1.116 1.116L7.8 8.307l-.692.691c-3.324 3.325-3.324 8.734 0 12.058.138.138.28.27.424.396v6.592H1.836V30h13.35v-1.956H9.488v-5.31c1.151.543 2.4.815 3.648.815z" fill="#3B5363"/>
        <path d="M25.552 2.612A8.928 8.928 0 0 0 18.649.02l.129 1.952a6.971 6.971 0 0 1 5.39 2.023 6.97 6.97 0 0 1 2.024 5.39l1.952.13a8.927 8.927 0 0 0-2.592-6.903z" fill="#FFB24A"/>
        <path d="M23.427 4.736a6.131 6.131 0 0 0-4.74-1.78l.13 1.952a4.173 4.173 0 0 1 3.227 1.211c.85.85 1.29 2.026 1.211 3.228l1.953.129a6.13 6.13 0 0 0-1.78-4.74z" fill="#FFB24A"/>
        <path d="M21.336 6.827a3.26 3.26 0 0 0-2.521-.947l.129 1.953a1.304 1.304 0 0 1 1.387 1.386l1.952.13a3.261 3.261 0 0 0-.947-2.522z" fill="#FFB24A"/>
    </g>
    <defs>
        <clipPath id="uhx0v0z3ua">
            <path fill="#fff" d="M0 0h30v30H0z"/>
        </clipPath>
    </defs>
</svg>
